<svg width="58" height="47" viewBox="0 0 58 47" fill="none" xmlns="http://www.w3.org/2000/svg">
<path d="M35.4115 0.509821C35.6999 0.505308 35.9863 0.560313 36.254 0.671683C36.5218 0.783053 36.7657 0.9486 36.9719 1.15883L56.8266 21.5747C57.0334 21.7855 57.198 22.0372 57.311 22.3151C57.424 22.593 57.4832 22.8917 57.4851 23.194C57.4869 23.4962 57.4315 23.796 57.3219 24.0761C57.2124 24.3561 57.0509 24.6109 56.8467 24.8257L37.2468 45.6205C37.0438 45.836 36.8022 46.0076 36.5359 46.1257C36.2696 46.2438 35.9838 46.306 35.6947 46.3088C35.4057 46.3116 35.1191 46.2549 34.8514 46.1419C34.5837 46.0289 34.34 45.8619 34.1343 45.6504C33.9286 45.4389 33.7649 45.1871 33.6526 44.9092C33.5403 44.6314 33.4815 44.333 33.4796 44.0311C33.4777 43.7292 33.5328 43.4297 33.6417 43.1497C33.7506 42.8698 33.9111 42.6148 34.1142 42.3994L52.1898 23.2448L33.8794 4.43978C33.6727 4.22891 33.508 3.97726 33.395 3.69934C33.282 3.42141 33.2229 3.12272 33.221 2.82048C33.2191 2.51824 33.2746 2.21844 33.3841 1.93838C33.4937 1.65831 33.6552 1.40353 33.8593 1.18872C34.0628 0.974561 34.3047 0.804348 34.571 0.687848C34.8374 0.571348 35.123 0.51085 35.4115 0.509821Z" fill="#FF1430"/>
<path d="M2.66348 21.4317L55.2658 20.9267C55.847 20.9211 56.406 21.1568 56.8197 21.5819C57.2334 22.007 57.4679 22.5868 57.4717 23.1935C57.4754 23.8003 57.2481 24.3845 56.8397 24.8175C56.4314 25.2505 55.8754 25.4969 55.2941 25.5025L2.6918 26.0075C2.11051 26.0131 1.55153 25.7774 1.13784 25.3523C0.724153 24.9272 0.489636 24.3475 0.48588 23.7407C0.482124 23.1339 0.709437 22.5497 1.11782 22.1167C1.5262 21.6837 2.08219 21.4373 2.66348 21.4317Z" fill="#FF1430"/>
</svg>
